<?xml version="1.0" standalone="no"?>
<!DOCTYPE svg PUBLIC "-//W3C//DTD SVG 20010904//EN"
 "http://www.w3.org/TR/2001/REC-SVG-20010904/DTD/svg10.dtd">
<svg version="1.0" xmlns="http://www.w3.org/2000/svg"
 width="860.000000pt" height="695.000000pt" viewBox="0 0 860.000000 695.000000"
 preserveAspectRatio="xMidYMid meet">

<g transform="translate(0.000000,695.000000) scale(0.100000,-0.100000)"
fill="#000000" stroke="none">
<path d="M1735 6520 c-312 -49 -536 -239 -612 -520 -24 -88 -23 -280 1 -370
67 -250 254 -432 514 -502 106 -29 323 -31 437 -4 284 65 491 261 550 521 37
159 13 351 -62 504 -55 112 -178 234 -293 290 -47 23 -119 51 -160 62 -88 23
-285 33 -375 19z"/>
<path d="M5763 4630 c-416 -35 -761 -230 -1003 -568 -36 -51 -67 -92 -70 -92
-3 0 -5 127 -5 282 l0 283 -685 3 -685 2 0 -2065 0 -2065 685 2 685 3 5 1265
5 1265 28 79 c91 259 286 444 531 506 96 24 249 26 351 5 292 -62 470 -310
514 -713 7 -69 11 -481 11 -1257 l0 -1155 685 0 686 0 -4 1338 c-3 1308 -3
1340 -24 1467 -85 522 -280 886 -605 1130 -216 163 -484 259 -795 285 -131 11
-175 11 -310 0z"/>
<path d="M1180 2475 l0 -2065 685 0 685 0 0 2065 0 2065 -685 0 -685 0 0
-2065z"/>
</g>
</svg>
